<?xml version="1.0" encoding="utf-8"?>
<svg width="589px" height="58px" viewbox="0 0 589 58" version="1.1" xmlns:xlink="http://www.w3.org/1999/xlink" xmlns="http://www.w3.org/2000/svg">
  <g id="Logo">
    <path d="M0 47.0796L23.4327 5.46058C23.5481 5.25548 23.6702 5.05424 23.799 4.85685C23.9279 4.65935 24.063 4.46635 24.2043 4.27785C24.3462 4.0888 24.4939 3.90475 24.6476 3.7257C24.801 3.54693 24.9602 3.37321 25.1254 3.20453C25.2915 3.035 25.4625 2.87158 25.6384 2.71428C25.8149 2.5564 25.9965 2.40446 26.1833 2.25847C26.3697 2.11272 26.5612 1.97306 26.7578 1.8395C26.9527 1.70695 27.1523 1.58077 27.3565 1.46097C27.5623 1.34029 27.7712 1.22694 27.9833 1.12091C28.1958 1.01463 28.4117 0.915563 28.6311 0.823704C28.8498 0.732082 29.0715 0.647842 29.2961 0.570982C29.5216 0.493835 29.7491 0.424439 29.9786 0.362797C30.2088 0.301007 30.4404 0.247079 30.6734 0.201014C30.9072 0.154838 31.1419 0.116603 31.3775 0.0863094C31.6147 0.0558786 31.8521 0.0335007 32.0898 0.0191765C32.3274 0.00485611 32.5653 -0.00144386 32.8034 0.000276566C33.0416 0.00199795 33.2794 0.0117464 33.517 0.0295219C33.7541 0.0472651 33.9905 0.0729752 34.2261 0.106652C34.4621 0.140405 34.6966 0.182057 34.9297 0.231609C35.1627 0.281163 35.394 0.338547 35.6233 0.403762C35.8511 0.468452 36.0769 0.540883 36.3007 0.621056C36.5245 0.70124 36.7453 0.788755 36.963 0.8836C37.1813 0.978788 37.3959 1.08101 37.6068 1.19026C37.8171 1.29921 38.0239 1.41523 38.2271 1.53832C38.4298 1.66116 38.628 1.79048 38.8218 1.92627C39.0163 2.06253 39.206 2.2051 39.3909 2.35399C39.5745 2.50176 39.7533 2.6557 39.9274 2.81581C40.1017 2.97625 40.2706 3.14226 40.434 3.31387C40.5961 3.48411 40.7527 3.65985 40.9039 3.84106C41.0553 4.02268 41.2003 4.20864 41.339 4.39896C41.4782 4.59024 41.6104 4.78478 41.7356 4.98258C41.8617 5.1818 41.9812 5.38495 42.094 5.59203L60.616 39.5904L78.4673 5.9257C78.5781 5.71617 78.6972 5.50832 78.8249 5.30215C78.9494 5.10089 79.0803 4.90413 79.2174 4.71188C79.3569 4.51618 79.5029 4.32532 79.6554 4.13929C79.8053 3.95584 79.9632 3.77581 80.1289 3.59919C80.2895 3.42747 80.4579 3.25939 80.634 3.09498C80.8079 2.93265 80.9867 2.77645 81.1703 2.62637C81.3586 2.47299 81.5493 2.32761 81.7427 2.19024C81.9421 2.04894 82.1438 1.91581 82.3478 1.79086C82.5506 1.66642 82.7592 1.54808 82.9738 1.43584C83.1859 1.3248 83.4019 1.2209 83.6218 1.12415C83.8415 1.02745 84.0643 0.938274 84.2902 0.856624C84.518 0.774318 84.7481 0.699966 84.9805 0.633568C85.2097 0.567935 85.442 0.509942 85.6773 0.459591C85.9137 0.409056 86.1512 0.36669 86.3897 0.332493C86.6289 0.298221 86.8688 0.272166 87.1097 0.254331C87.3487 0.236544 87.5888 0.226934 87.83 0.225504C88.0715 0.224125 88.3122 0.230927 88.5524 0.245909C88.7934 0.260992 89.0332 0.284205 89.2719 0.315548C89.5111 0.347082 89.7483 0.3865 89.9834 0.433803C90.2208 0.481678 90.4555 0.53735 90.6876 0.600817C90.9201 0.664414 91.1502 0.735876 91.378 0.8152C91.605 0.894205 91.8295 0.981091 92.0517 1.07586C92.2715 1.16938 92.4895 1.27121 92.7057 1.38135C92.9176 1.48925 93.1263 1.60444 93.3316 1.72692C93.5393 1.85109 93.7412 1.98104 93.9373 2.11676C94.1349 2.25346 94.3278 2.39679 94.5159 2.54678C94.7025 2.69548 94.8838 2.8502 95.0601 3.01095C95.2382 3.17379 95.4091 3.34056 95.5729 3.51125C95.7409 3.68682 95.9012 3.86567 96.0538 4.04781C96.2064 4.22994 96.3531 4.41726 96.4939 4.60979C96.634 4.80138 96.7676 4.99736 96.8949 5.19772C97.0246 5.40265 97.146 5.60885 97.2591 5.81635L115.585 39.4548L132.913 5.85641C133.02 5.64842 133.135 5.44258 133.257 5.23889C133.38 5.03427 133.51 4.83423 133.646 4.63879C133.779 4.44741 133.92 4.25825 134.069 4.07131C134.213 3.89044 134.365 3.71219 134.524 3.53657C134.686 3.35906 134.851 3.18957 135.019 3.0281C135.193 2.86102 135.37 2.70178 135.55 2.55039C135.731 2.39722 135.918 2.25036 136.11 2.10981C136.301 1.96959 136.496 1.83578 136.696 1.70839C136.9 1.57895 137.106 1.45738 137.315 1.34367C137.522 1.23031 137.735 1.12318 137.954 1.02228C138.168 0.923603 138.386 0.831582 138.609 0.746215C138.832 0.661129 139.058 0.583333 139.288 0.512826C139.514 0.443225 139.744 0.381095 139.977 0.326435C140.208 0.272251 140.441 0.225738 140.677 0.186895C140.913 0.148108 141.15 0.11736 141.387 0.0946484C141.625 0.0718803 141.863 0.057188 142.102 0.0505714C142.341 0.0439367 142.579 0.0454006 142.818 0.0549641C143.057 0.0644531 143.295 0.0820551 143.533 0.107771C143.769 0.133294 144.005 0.166884 144.241 0.208542C144.475 0.24997 144.708 0.299254 144.939 0.356392C145.173 0.41428 145.403 0.479673 145.63 0.552573C145.857 0.625053 146.081 0.705553 146.304 0.794073C146.523 0.880698 146.74 0.975232 146.955 1.07767C147.171 1.18015 147.382 1.28971 147.59 1.40636C147.798 1.52322 148.002 1.64677 148.201 1.77701C148.399 1.9065 148.593 2.04222 148.782 2.18419C148.973 2.32796 149.159 2.478 149.34 2.63432C149.518 2.78756 149.69 2.94648 149.858 3.11109C150.029 3.2804 150.193 3.45294 150.35 3.62871C150.506 3.80509 150.658 3.98691 150.803 4.17417C150.95 4.3623 151.09 4.55513 151.223 4.75267C151.353 4.94404 151.478 5.14204 151.598 5.34668L175.893 46.8311L165.538 52.8953L163.766 49.8699L142.47 13.506L125.101 47.1833C124.989 47.4004 124.873 47.6085 124.753 47.8076C124.629 48.0134 124.496 48.2175 124.355 48.42C124.219 48.6156 124.077 48.8045 123.931 48.9866C123.779 49.1773 123.62 49.3622 123.456 49.5412C123.341 49.6658 123.223 49.7885 123.101 49.9093C123.051 49.9587 123.001 50.0079 122.949 50.0569C122.778 50.2198 122.597 50.3803 122.408 50.5386C122.225 50.69 122.038 50.8351 121.846 50.974C121.648 51.1176 121.448 51.2524 121.246 51.3782C121.04 51.5068 120.831 51.6281 120.617 51.7423C120.405 51.8557 120.186 51.9633 119.96 52.0651C119.743 52.1622 119.521 52.2529 119.294 52.3372C119.067 52.4211 118.837 52.4973 118.605 52.5656C118.372 52.6341 118.141 52.6935 117.912 52.744C117.672 52.7974 117.43 52.8423 117.188 52.8785C116.95 52.9141 116.708 52.942 116.461 52.9621C116.222 52.9811 115.984 52.992 115.744 52.9949C115.501 52.9979 115.258 52.9925 115.015 52.9786C114.772 52.9648 114.53 52.9425 114.288 52.9119C114.048 52.8815 113.811 52.8432 113.576 52.7969C113.338 52.7501 113.101 52.6952 112.867 52.6321C112.634 52.5695 112.404 52.4992 112.176 52.4211C111.947 52.3426 111.72 52.2557 111.493 52.1603C111.272 52.0666 111.051 51.9646 110.833 51.8543C110.618 51.7459 110.411 51.6321 110.21 51.5129C109.999 51.3883 109.792 51.2559 109.589 51.1158C109.394 50.9811 109.201 50.8382 109.01 50.6871C108.823 50.5385 108.639 50.382 108.458 50.2175C108.353 50.1216 108.249 50.0236 108.148 49.9237C108.08 49.8564 108.012 49.7881 107.946 49.7189C107.779 49.5451 107.618 49.3658 107.463 49.1812C107.309 48.9984 107.162 48.8108 107.021 48.6183C106.879 48.4246 106.743 48.2248 106.612 48.0188C106.484 47.8168 106.363 47.6115 106.25 47.4028L87.9085 13.7361L70.0556 47.4037C69.9451 47.6119 69.8273 47.8173 69.7022 48.0201C69.5764 48.2235 69.4456 48.4206 69.3095 48.6111C69.1692 48.8083 69.0223 49.0003 68.8691 49.1873C68.718 49.3716 68.561 49.5507 68.3981 49.7246C68.3234 49.8042 68.2468 49.8835 68.1682 49.9624C68.0768 50.054 67.9827 50.1452 67.8858 50.236C67.7132 50.3968 67.5352 50.5521 67.3517 50.702C67.1636 50.8556 66.9749 50.9992 66.7858 51.133C66.5862 51.2752 66.382 51.41 66.1732 51.5377C65.974 51.6595 65.7662 51.7773 65.5498 51.8912C65.3379 52.002 65.1226 52.1056 64.904 52.2018C64.6798 52.3006 64.4572 52.3896 64.2363 52.4689C64.0095 52.551 63.7802 52.6252 63.5486 52.6916C63.314 52.7588 63.0822 52.8167 62.8529 52.8654C62.6129 52.917 62.3754 52.9596 62.1403 52.993C61.8988 53.0279 61.6562 53.0543 61.4126 53.0723C61.1738 53.0899 60.9347 53.0994 60.6953 53.1009C60.4515 53.1024 60.2124 53.0957 59.9781 53.0807C59.7348 53.0658 59.4922 53.0424 59.2503 53.0106C59.0108 52.979 58.7767 52.9401 58.548 52.8939C58.3069 52.8457 58.0714 52.79 57.8413 52.7268C57.6049 52.6623 57.3747 52.5909 57.1507 52.5126C56.9221 52.4332 56.6984 52.3468 56.4794 52.2534C56.256 52.1584 56.0377 52.0567 55.8245 51.9481C55.6066 51.8374 55.3976 51.7221 55.1975 51.6022C54.9869 51.4769 54.7829 51.3456 54.5853 51.2084C54.3877 51.0715 54.1973 50.93 54.0141 50.7839C53.8245 50.6332 53.6423 50.478 53.4676 50.3183C53.3447 50.2064 53.2254 50.0926 53.1098 49.9769C53.0556 49.9227 53.0023 49.8681 52.9498 49.8132C52.7848 49.6411 52.6256 49.4636 52.4721 49.2806C52.3188 49.0978 52.1697 48.9074 52.025 48.7095C51.8862 48.519 51.7529 48.3231 51.6253 48.1218C51.4992 47.9227 51.3789 47.7182 51.2644 47.5084L32.7077 13.4463L12.1177 50.0166L10.4565 52.9669L0 47.0796L0 47.0796Z" id="Vector" fill="#FFFFFF" fill-rule="evenodd" stroke="none" />
    <path d="M371.134 11.368C375.967 11.368 379.679 12.5183 382.27 14.819C384.861 17.1197 386.156 20.59 386.156 25.23L386.156 43.036L377.688 43.036L377.688 39.15C375.987 42.05 372.816 43.5 368.176 43.5C365.779 43.5 363.7 43.094 361.941 42.282C360.182 41.47 358.838 40.3487 357.91 38.918C356.982 37.4873 356.518 35.8633 356.518 34.046C356.518 31.146 357.61 28.8647 359.795 27.202C361.98 25.5393 365.353 24.708 369.916 24.708L377.108 24.708C377.108 22.736 376.509 21.2183 375.31 20.155C374.111 19.0917 372.313 18.56 369.916 18.56C368.253 18.56 366.62 18.821 365.015 19.343C363.41 19.865 362.047 20.5707 360.926 21.46L357.678 15.138C359.379 13.9393 361.419 13.0113 363.797 12.354C366.175 11.6967 368.621 11.368 371.134 11.368L371.134 11.368ZM370.438 37.41C371.985 37.41 373.357 37.0523 374.556 36.337C375.755 35.6217 376.605 34.568 377.108 33.176L377.108 29.986L370.902 29.986C367.19 29.986 365.334 31.204 365.334 33.64C365.334 34.8 365.788 35.7183 366.697 36.395C367.606 37.0717 368.853 37.41 370.438 37.41L370.438 37.41ZM335.836 11.368C339.703 11.368 342.825 12.528 345.203 14.848C347.581 17.168 348.77 20.6093 348.77 25.172L348.77 43.036L339.722 43.036L339.722 26.564C339.722 24.0893 339.181 22.243 338.098 21.025C337.015 19.807 335.449 19.198 333.4 19.198C331.119 19.198 329.301 19.9037 327.948 21.315C326.595 22.7263 325.918 24.824 325.918 27.608L325.918 43.036L316.87 43.036L316.87 11.832L325.512 11.832L325.512 15.486C326.711 14.1713 328.199 13.1563 329.978 12.441C331.757 11.7257 333.709 11.368 335.836 11.368L335.836 11.368ZM292.128 43.5C288.841 43.5 285.893 42.8137 283.283 41.441C280.673 40.0683 278.633 38.164 277.164 35.728C275.695 33.292 274.96 30.5273 274.96 27.434C274.96 24.3407 275.695 21.576 277.164 19.14C278.633 16.704 280.673 14.7997 283.283 13.427C285.893 12.0543 288.841 11.368 292.128 11.368C295.415 11.368 298.353 12.0543 300.944 13.427C303.535 14.7997 305.565 16.704 307.034 19.14C308.503 21.576 309.238 24.3407 309.238 27.434C309.238 30.5273 308.503 33.292 307.034 35.728C305.565 38.164 303.535 40.0683 300.944 41.441C298.353 42.8137 295.415 43.5 292.128 43.5L292.128 43.5ZM292.128 36.076C294.448 36.076 296.352 35.293 297.841 33.727C299.33 32.161 300.074 30.0633 300.074 27.434C300.074 24.8047 299.33 22.707 297.841 21.141C296.352 19.575 294.448 18.792 292.128 18.792C289.808 18.792 287.894 19.575 286.386 21.141C284.878 22.707 284.124 24.8047 284.124 27.434C284.124 30.0633 284.878 32.161 286.386 33.727C287.894 35.293 289.808 36.076 292.128 36.076L292.128 36.076ZM259.324 15.95C260.407 14.442 261.866 13.3013 263.703 12.528C265.54 11.7547 267.657 11.368 270.054 11.368L270.054 19.72C269.049 19.6427 268.372 19.604 268.024 19.604C265.433 19.604 263.403 20.329 261.934 21.779C260.465 23.229 259.73 25.404 259.73 28.304L259.73 43.036L250.682 43.036L250.682 11.832L259.324 11.832L259.324 15.95ZM224.2 30.798L219.85 35.09L219.85 43.036L210.802 43.036L210.802 0L219.85 0L219.85 24.36L233.074 11.832L243.862 11.832L230.87 25.056L245.022 43.036L234.06 43.036L224.2 30.798ZM186.06 43.5C182.773 43.5 179.825 42.8137 177.215 41.441C174.605 40.0683 172.565 38.164 171.096 35.728C169.627 33.292 168.892 30.5273 168.892 27.434C168.892 24.3407 169.627 21.576 171.096 19.14C172.565 16.704 174.605 14.7997 177.215 13.427C179.825 12.0543 182.773 11.368 186.06 11.368C189.347 11.368 192.285 12.0543 194.876 13.427C197.467 14.7997 199.497 16.704 200.966 19.14C202.435 21.576 203.17 24.3407 203.17 27.434C203.17 30.5273 202.435 33.292 200.966 35.728C199.497 38.164 197.467 40.0683 194.876 41.441C192.285 42.8137 189.347 43.5 186.06 43.5L186.06 43.5ZM186.06 36.076C188.38 36.076 190.284 35.293 191.773 33.727C193.262 32.161 194.006 30.0633 194.006 27.434C194.006 24.8047 193.262 22.707 191.773 21.141C190.284 19.575 188.38 18.792 186.06 18.792C183.74 18.792 181.826 19.575 180.318 21.141C178.81 22.707 178.056 24.8047 178.056 27.434C178.056 30.0633 178.81 32.161 180.318 33.727C181.826 35.293 183.74 36.076 186.06 36.076L186.06 36.076ZM164.508 41.528C163.619 42.1853 162.526 42.6783 161.231 43.007C159.936 43.3357 158.573 43.5 157.142 43.5C153.43 43.5 150.559 42.5527 148.529 40.658C146.499 38.7633 145.484 35.9793 145.484 32.306L145.484 19.488L140.67 19.488L140.67 12.528L145.484 12.528L145.484 4.93001L154.532 4.93001L154.532 12.528L162.304 12.528L162.304 19.488L154.532 19.488L154.532 32.19C154.532 33.5047 154.87 34.5197 155.547 35.235C156.224 35.9503 157.181 36.308 158.418 36.308C159.849 36.308 161.067 35.9213 162.072 35.148L164.508 41.528ZM121.206 11.368C124.106 11.368 126.745 12.035 129.123 13.369C131.501 14.703 133.367 16.5783 134.72 18.995C136.073 21.4117 136.75 24.2247 136.75 27.434C136.75 30.6433 136.073 33.4563 134.72 35.873C133.367 38.2897 131.501 40.165 129.123 41.499C126.745 42.833 124.106 43.5 121.206 43.5C117.223 43.5 114.091 42.2433 111.81 39.73L111.81 54.288L102.762 54.288L102.762 11.832L111.404 11.832L111.404 15.428C113.647 12.7213 116.914 11.368 121.206 11.368L121.206 11.368ZM119.64 36.076C121.96 36.076 123.864 35.293 125.353 33.727C126.842 32.161 127.586 30.0633 127.586 27.434C127.586 24.8047 126.842 22.707 125.353 21.141C123.864 19.575 121.96 18.792 119.64 18.792C117.32 18.792 115.416 19.575 113.927 21.141C112.438 22.707 111.694 24.8047 111.694 27.434C111.694 30.0633 112.438 32.161 113.927 33.727C115.416 35.293 117.32 36.076 119.64 36.076L119.64 36.076ZM97.45 11.832L83.356 44.95C81.9253 48.546 80.1563 51.0787 78.049 52.548C75.9417 54.0173 73.3993 54.752 70.422 54.752C68.798 54.752 67.1933 54.5007 65.608 53.998C64.0227 53.4953 62.7273 52.7993 61.722 51.91L65.028 45.472C65.724 46.0907 66.5263 46.574 67.435 46.922C68.3437 47.27 69.2427 47.444 70.132 47.444C71.3693 47.444 72.3746 47.1443 73.148 46.545C73.9213 45.9457 74.6173 44.95 75.236 43.558L75.352 43.268L61.838 11.832L71.176 11.832L79.934 33.002L88.75 11.832L97.45 11.832ZM48.522 15.95C49.6047 14.442 51.0643 13.3013 52.901 12.528C54.7377 11.7547 56.8547 11.368 59.252 11.368L59.252 19.72C58.2467 19.6427 57.57 19.604 57.222 19.604C54.6313 19.604 52.6013 20.329 51.132 21.779C49.6627 23.229 48.928 25.404 48.928 28.304L48.928 43.036L39.88 43.036L39.88 11.832L48.522 11.832L48.522 15.95ZM13.398 30.798L9.048 35.09L9.048 43.036L0 43.036L0 0L9.048 0L9.048 24.36L22.272 11.832L33.06 11.832L20.068 25.056L34.22 43.036L23.258 43.036L13.398 30.798Z" transform="translate(202.14767 2.4272003)" id="kryptokrona" fill="#FFFFFF" stroke="none" />
  </g>
</svg>